<svg width="68" height="68" viewBox="0 0 68 68" fill="none" xmlns="http://www.w3.org/2000/svg">
<path d="M67.5069 50.7545L58.0661 46.2205L67.5881 40.308C67.9948 40.0559 68.1217 39.5184 67.8713 39.1084C67.6218 38.6975 67.089 38.5701 66.6841 38.8214L56.3107 45.2626L45.4633 40.8663C45.4521 40.862 45.44 40.8637 45.4288 40.8602C45.0057 40.3795 44.4591 39.8683 43.7511 39.4198C45.0463 38.516 45.7033 36.9805 45.8959 36.0208C45.9779 35.6151 45.7664 35.2068 45.389 35.0446C44.7259 34.7593 44.1552 34.1634 43.6872 33.2709C47.6245 26.951 48.9689 20.768 47.6858 14.8852C45.6394 5.50474 37.6958 0.349514 37.3582 0.134895C37.1 -0.029996 36.7736 -0.0448272 36.5034 0.0965076C36.2323 0.237842 36.0535 0.513532 36.0363 0.821502L35.8385 4.21266C34.6927 3.81832 33.3786 3.74329 32.5505 3.74329C32.3209 3.74329 32.1862 3.7494 32.1862 3.7494C31.8011 3.76772 31.473 4.04167 31.384 4.42118C30.5681 7.9275 24.4368 11.1241 22.1444 12.0602C21.7437 12.2243 21.5236 12.6613 21.6306 13.0845L22.4552 16.3622C22.551 16.7452 22.8912 17.0157 23.2824 17.0192C23.152 17.1998 23.0933 17.4257 23.1226 17.6499C23.1555 17.9029 23.2971 18.1289 23.5095 18.2676L25.8451 19.7953C26.174 20.0107 26.6075 19.9758 26.8976 19.7063L28.299 18.4081H31.2321C31.6655 19.8293 28.4682 25.6816 24.1225 31.3009C23.9498 31.5243 23.8946 31.8192 23.9766 32.0905C24.0586 32.3627 24.265 32.5773 24.5318 32.6663L27.673 33.7159C27.2577 34.3641 26.7741 34.809 26.2293 35.0437C25.852 35.2068 25.6404 35.6143 25.7216 36.02C25.8995 36.9064 26.4797 38.2761 27.5849 39.1939L21.4243 41.9839C20.9891 42.1811 20.7948 42.6967 20.9899 43.1373C21.1333 43.461 21.4476 43.6529 21.7783 43.6529C21.8966 43.6529 22.0157 43.6285 22.1306 43.5761L25.2605 42.1584C25.1232 42.4053 25.0473 42.5763 25.0352 42.6042C24.9773 42.7456 24.9557 42.9009 24.9765 43.0527L25.2571 45.232V48.0308C25.2571 48.5124 25.643 48.9032 26.1205 48.9032H45.4961C45.9736 48.9032 46.3596 48.5124 46.3596 48.0308V45.2311L46.6186 43.2149L54.817 46.5381L35.2885 58.0725L14.2353 45.6386L14.2318 45.6368C14.2301 45.636 14.2283 45.6342 14.2283 45.6342L7.19044 41.5695C6.77685 41.3305 6.24929 41.4753 6.01271 41.8941C5.77612 42.312 5.92032 42.845 6.33391 43.0841L11.8098 46.2467L0.548855 50.731C0.10332 50.9081 -0.114267 51.415 0.0601479 51.8625C0.193981 52.2063 0.519498 52.4157 0.864011 52.4157C0.969351 52.4157 1.07642 52.3965 1.18003 52.3546L13.7258 47.359L33.2862 58.911L21.3241 66.386C20.9183 66.6399 20.7939 67.1773 21.0443 67.5865C21.2075 67.8534 21.4907 68 21.78 68C21.9354 68 22.0917 67.9581 22.2333 67.87L34.7929 60.0207L46.5832 66.7001C47.002 66.9374 47.5261 66.7856 47.7583 66.3659C47.9923 65.9454 47.8438 65.4141 47.4276 65.1785L36.8358 59.1788L56.6544 47.4751L66.7652 52.331C66.8853 52.3886 67.0113 52.4157 67.1357 52.4157C67.4586 52.4157 67.7686 52.2324 67.9162 51.9175C68.1208 51.4822 67.9378 50.9622 67.5069 50.7545Z" fill="#274966" fill-opacity="0.5"/>
</svg>
