<svg width="27" height="67" viewBox="0 0 27 67" fill="none" xmlns="http://www.w3.org/2000/svg">
<path d="M21.8042 23.5873V22.4395H5.19141V23.5873C5.19141 23.8917 5.3008 24.1837 5.49552 24.3989C5.69023 24.6142 5.95433 24.7351 6.2297 24.7351H20.7659C21.0412 24.7351 21.3053 24.6142 21.5001 24.3989C21.6948 24.1837 21.8042 23.8917 21.8042 23.5873Z" fill="#274966"/>
<path d="M23.8812 17.8486H3.11523V20.1443H23.8812V17.8486Z" fill="#274966"/>
<path d="M19.6133 15.553C20.4728 14.1306 20.8662 12.4259 20.7283 10.7222C20.5905 9.0184 19.9296 7.41802 18.8554 6.18678L13.4978 0L8.14015 6.18678C7.06598 7.41802 6.40509 9.0184 6.26721 10.7222C6.12934 12.4259 6.52278 14.1306 7.3822 15.553H19.6133Z" fill="#274966"/>
<path d="M4.35938 54.5786H22.6334L21.8547 49.9873H5.1381L4.35938 54.5786Z" fill="#274966"/>
<path d="M7.26911 27.0312C7.206 33.9592 6.62605 40.8696 5.53516 47.6921H21.473C20.3787 40.8699 19.7952 33.9595 19.7287 27.0312H7.26911Z" fill="#274966"/>
<path d="M26.9957 61.4658H0V66.0571H26.9957V61.4658Z" fill="#274966"/>
<path d="M24.9187 58.0228C24.9187 57.7184 24.8093 57.4264 24.6146 57.2112C24.4199 56.9959 24.1558 56.875 23.8804 56.875H3.11447C2.8391 56.875 2.575 56.9959 2.38028 57.2112C2.18556 57.4264 2.07617 57.7184 2.07617 58.0228V59.1707H24.9187V58.0228Z" fill="#274966"/>
</svg>
