<svg width="43" height="43" viewBox="0 0 43 43" fill="none" xmlns="http://www.w3.org/2000/svg">
<path d="M22.3952 12.5413C22.3952 10.5526 23.9898 8.95801 25.9785 8.95801H32.2494C34.2202 8.95801 35.8327 10.5705 35.8327 12.5413V16.4113C33.7544 17.1459 32.2494 19.1168 32.2494 21.4459V25.083H22.3952V12.5413ZM10.7493 21.428V25.083H20.6035V12.5413C20.6035 10.5526 19.0089 8.95801 17.0202 8.95801H10.7493C8.77852 8.95801 7.16602 10.5705 7.16602 12.5413V16.3934C9.24435 17.128 10.7493 19.1168 10.7493 21.428ZM37.0152 17.9701C35.2594 18.2568 34.041 19.923 34.041 21.7147V26.8747H8.95768V21.4997C8.95768 20.5493 8.58015 19.6379 7.90815 18.9659C7.23614 18.2939 6.32471 17.9163 5.37435 17.9163C4.42399 17.9163 3.51256 18.2939 2.84055 18.9659C2.16854 19.6379 1.79102 20.5493 1.79102 21.4997V30.458C1.79102 32.4288 3.40352 34.0413 5.37435 34.0413V37.6247H8.95768V34.0413H34.041V37.6247H37.6244V34.0413C39.5952 34.0413 41.2077 32.4288 41.2077 30.458V21.4997C41.2077 19.3318 39.2548 17.5938 37.0152 17.9701Z" fill="url(#paint0_linear_972_3355)"/>
<defs>
<linearGradient id="paint0_linear_972_3355" x1="1.79102" y1="23.2913" x2="41.2077" y2="23.2913" gradientUnits="userSpaceOnUse">
<stop stop-color="#85ACFA"/>
<stop offset="1" stop-color="#C9E7F8"/>
</linearGradient>
</defs>
</svg>
