<svg width="50" height="54" viewBox="0 0 50 54" fill="none" xmlns="http://www.w3.org/2000/svg">
<g clip-path="url(#clip0_1435_1350)">
<path d="M34.5519 21.5743L31.6874 13.4615H36.7332C38.6517 13.4665 40.5424 13.9563 42.2532 14.8915C43.964 15.8267 45.4471 17.1812 46.5832 18.8461L48.2228 21.258C48.9216 22.2845 49.4308 23.4461 49.7228 24.6794H35.3165C35.1686 23.6172 34.9122 22.5759 34.5519 21.5743ZM24.9999 8.97432C25.5524 8.97432 26.0823 8.73794 26.473 8.31719C26.8637 7.89643 27.0832 7.32577 27.0832 6.73073V2.24355C27.0832 1.64851 26.8637 1.07785 26.473 0.657093C26.0823 0.236338 25.5524 -3.92119e-05 24.9999 -3.92119e-05C24.4473 -3.92119e-05 23.9174 0.236338 23.5267 0.657093C23.136 1.07785 22.9165 1.64851 22.9165 2.24355V6.73073C22.9165 7.32577 23.136 7.89643 23.5267 8.31719C23.9174 8.73794 24.4473 8.97432 24.9999 8.97432ZM30.6707 23.2054L27.2311 13.4615H22.7874L19.2915 23.45C19.1574 23.8521 19.0461 24.2627 18.9582 24.6794H31.0853C30.9812 24.1777 30.8426 23.685 30.6707 23.2054ZM34.4853 8.74996C34.7312 8.88314 34.9993 8.96251 35.2739 8.98346C35.5485 9.00441 35.8243 8.96654 36.0852 8.87203C36.3462 8.77753 36.5871 8.62826 36.7942 8.43286C37.0012 8.23745 37.1703 7.99979 37.2915 7.73361L39.3749 3.24644C39.6218 2.71388 39.6623 2.09747 39.4872 1.53282C39.3122 0.968165 38.936 0.501519 38.4415 0.235538C37.947 -0.0304438 37.3746 -0.0739736 36.8503 0.114525C36.326 0.303023 35.8927 0.708108 35.6457 1.24067L33.5624 5.72784C33.438 5.99138 33.3631 6.2788 33.3422 6.57358C33.3213 6.86836 33.3547 7.16468 33.4404 7.44552C33.5262 7.72636 33.6627 7.98618 33.842 8.21004C34.0213 8.4339 34.2399 8.61739 34.4853 8.74996ZM24.9749 42.3746L30.779 30.5891C30.9263 30.1245 31.0426 29.6491 31.1269 29.1666H18.7499C18.8435 29.7445 18.9829 30.3127 19.1665 30.865L24.9749 42.3746ZM15.4165 21.8278L18.3332 13.4615H13.2978C11.4187 13.4668 9.56576 13.9366 7.88185 14.8348C6.19795 15.7329 4.728 17.0354 3.58529 18.6419L1.87487 21.0516C1.12125 22.1306 0.582905 23.3657 0.29362 24.6794H14.6686C14.8288 23.7044 15.0793 22.7491 15.4165 21.8278ZM35.3519 29.1666C35.2207 30.2388 34.9804 31.2921 34.6353 32.3077C34.604 32.3974 26.8103 48.1788 26.804 48.181C26.6343 48.5361 26.3774 48.8342 26.0613 49.0429C25.7452 49.2516 25.382 49.3629 25.0112 49.3648C24.6404 49.3666 24.2762 49.2589 23.9583 49.0534C23.6404 48.8478 23.381 48.5523 23.2082 48.199C23.2082 48.199 15.3457 32.6913 15.3124 32.5948C14.9392 31.488 14.6902 30.3371 14.5707 29.1666H0.251953C0.637242 31.1742 1.60631 32.9973 3.01862 34.3718L19.6644 51.6631C21.1265 53.0672 23.018 53.8413 24.9769 53.8371C26.9774 53.8329 28.9061 53.034 30.3936 51.5935L46.9269 34.4682C48.3757 33.0729 49.3722 31.2153 49.7707 29.1666H35.3519ZM12.7186 7.73361C12.9656 8.26766 13.3995 8.67417 13.9248 8.86372C14.4501 9.05327 15.0238 9.01033 15.5197 8.74435C16.0156 8.47837 16.393 8.01113 16.569 7.44543C16.7451 6.87972 16.7052 6.26189 16.4582 5.72784L14.3749 1.24067C14.2526 0.97697 14.0833 0.741796 13.8766 0.548573C13.6699 0.355349 13.4299 0.207859 13.1703 0.114525C12.6459 -0.0739736 12.0736 -0.0304438 11.579 0.235538C11.0845 0.501519 10.7084 0.968165 10.5333 1.53282C10.3583 2.09747 10.3987 2.71388 10.6457 3.24644L12.7186 7.73361Z" fill="url(#paint0_linear_1435_1350)"/>
</g>
<defs>
<linearGradient id="paint0_linear_1435_1350" x1="0.251953" y1="26.9181" x2="49.7707" y2="26.9181" gradientUnits="userSpaceOnUse">
<stop stop-color="#85ACFA"/>
<stop offset="1" stop-color="#C9E7F8"/>
</linearGradient>
<clipPath id="clip0_1435_1350">
<rect width="50" height="53.8462" fill="white"/>
</clipPath>
</defs>
</svg>
