<svg width="40" height="40" viewBox="0 0 40 40" fill="none" xmlns="http://www.w3.org/2000/svg">
<g clip-path="url(#clip0_972_3376)">
<path d="M12 14C11.7348 14 11.4804 13.8946 11.2929 13.7071C11.1054 13.5196 11 13.2652 11 13C11 12.7348 11.1054 12.4804 11.2929 12.2929C11.4804 12.1054 11.7348 12 12 12H28C28.2652 12 28.5196 12.1054 28.7071 12.2929C28.8946 12.4804 29 12.7348 29 13C29 13.2652 28.8946 13.5196 28.7071 13.7071C28.5196 13.8946 28.2652 14 28 14H12Z" fill="url(#paint0_linear_972_3376)"/>
<path fill-rule="evenodd" clip-rule="evenodd" d="M5.53417 9.36L18.5342 23.36C18.7214 23.5617 18.9482 23.7227 19.2005 23.8327C19.4527 23.9427 19.725 23.9995 20.0002 23.9995C20.2754 23.9995 20.5476 23.9427 20.7999 23.8327C21.0521 23.7227 21.279 23.5617 21.4662 23.36L34.4662 9.36C35.6542 8.08 34.7462 6 33.0002 6H7.00017C5.25417 6 4.34617 8.08 5.53417 9.36ZM28.4142 10L20.0002 19.06L11.5862 10H28.4142Z" fill="url(#paint1_linear_972_3376)"/>
<path d="M22 21V35H18V21H22Z" fill="url(#paint2_linear_972_3376)"/>
<path d="M29 37.9998H11C11 35.0498 15.1 32.9998 20 32.9998C24.9 32.9998 29 35.0498 29 37.9998ZM25.636 1.45584C25.2498 1.3593 24.9179 1.11332 24.7131 0.771999C24.5083 0.430683 24.4475 0.0219936 24.544 -0.364162C24.6405 -0.750317 24.8865 -1.08231 25.2278 -1.2871C25.5692 -1.49189 25.9778 -1.5527 26.364 -1.45616L34.364 0.543838C34.7502 0.640377 35.0821 0.886362 35.2869 1.22768C35.4917 1.56899 35.5525 1.97768 35.456 2.36384C35.3595 2.74999 35.1135 3.08198 34.7722 3.28677C34.4308 3.49156 34.0222 3.55238 33.636 3.45584L25.636 1.45584Z" fill="url(#paint3_linear_972_3376)"/>
<path d="M22.4248 15.4743C22.2991 15.852 22.0285 16.1642 21.6726 16.3424C21.3166 16.5205 20.9045 16.55 20.5268 16.4243C20.1491 16.2986 19.8369 16.028 19.6587 15.6721C19.4806 15.3161 19.4511 14.904 19.5768 14.5263L24.5768 -0.473698C24.6371 -0.662988 24.7344 -0.838419 24.863 -0.989807C24.9916 -1.14119 25.1491 -1.26552 25.3261 -1.35558C25.5032 -1.44563 25.6964 -1.49962 25.8945 -1.5144C26.0926 -1.52918 26.2917 -1.50446 26.4801 -1.44168C26.6686 -1.3789 26.8427 -1.27931 26.9924 -1.14868C27.1421 -1.01806 27.2643 -0.859004 27.352 -0.680756C27.4397 -0.502507 27.4911 -0.308613 27.5033 -0.11033C27.5154 0.0879532 27.4881 0.286676 27.4228 0.474301L22.4248 15.4743Z" fill="url(#paint4_linear_972_3376)"/>
</g>
<defs>
<linearGradient id="paint0_linear_972_3376" x1="11" y1="13" x2="29" y2="13" gradientUnits="userSpaceOnUse">
<stop stop-color="#85ACFA"/>
<stop offset="1" stop-color="#C9E7F8"/>
</linearGradient>
<linearGradient id="paint1_linear_972_3376" x1="4.99609" y1="14.9998" x2="35.0043" y2="14.9998" gradientUnits="userSpaceOnUse">
<stop stop-color="#85ACFA"/>
<stop offset="1" stop-color="#C9E7F8"/>
</linearGradient>
<linearGradient id="paint2_linear_972_3376" x1="18" y1="28" x2="22" y2="28" gradientUnits="userSpaceOnUse">
<stop stop-color="#85ACFA"/>
<stop offset="1" stop-color="#C9E7F8"/>
</linearGradient>
<linearGradient id="paint3_linear_972_3376" x1="11" y1="18.2494" x2="35.5008" y2="18.2494" gradientUnits="userSpaceOnUse">
<stop stop-color="#85ACFA"/>
<stop offset="1" stop-color="#C9E7F8"/>
</linearGradient>
<linearGradient id="paint4_linear_972_3376" x1="19.5" y1="7.49128" x2="27.5061" y2="7.49128" gradientUnits="userSpaceOnUse">
<stop stop-color="#85ACFA"/>
<stop offset="1" stop-color="#C9E7F8"/>
</linearGradient>
<clipPath id="clip0_972_3376">
<rect width="40" height="40" fill="white"/>
</clipPath>
</defs>
</svg>
