<svg width="25" height="25" viewBox="0 0 25 25" fill="none" xmlns="http://www.w3.org/2000/svg">
<path fill-rule="evenodd" clip-rule="evenodd" d="M6.50037 2C5.3071 2 4.16267 2.47391 3.31874 3.31752C2.47481 4.16113 2.00046 5.30537 2 6.49864V18.4996C2 19.6932 2.47414 20.8379 3.31813 21.6819C4.16211 22.5259 5.3068 23 6.50037 23H18.5014C19.6946 22.9995 20.8389 22.5252 21.6825 21.6813C22.5261 20.8373 23 19.6929 23 18.4996V6.49864C22.9995 5.30567 22.5254 4.16169 21.6819 3.31813C20.8383 2.47457 19.6943 2.00046 18.5014 2H6.50037ZM19.7958 6.50556C19.7958 6.84933 19.6593 7.17902 19.4162 7.4221C19.1731 7.66518 18.8434 7.80174 18.4996 7.80174C18.1559 7.80174 17.8262 7.66518 17.5831 7.4221C17.34 7.17902 17.2034 6.84933 17.2034 6.50556C17.2034 6.16178 17.34 5.83209 17.5831 5.58901C17.8262 5.34593 18.1559 5.20937 18.4996 5.20937C18.8434 5.20937 19.1731 5.34593 19.4162 5.58901C19.6593 5.83209 19.7958 6.16178 19.7958 6.50556ZM12.5026 8.90437C11.5492 8.90437 10.6349 9.2831 9.96071 9.95725C9.28656 10.6314 8.90783 11.5457 8.90783 12.4991C8.90783 13.4525 9.28656 14.3669 9.96071 15.041C10.6349 15.7152 11.5492 16.0939 12.5026 16.0939C13.456 16.0939 14.3703 15.7152 15.0445 15.041C15.7186 14.3669 16.0974 13.4525 16.0974 12.4991C16.0974 11.5457 15.7186 10.6314 15.0445 9.95725C14.3703 9.2831 13.456 8.90437 12.5026 8.90437ZM7.17785 12.4991C7.17785 11.0874 7.73866 9.73345 8.73692 8.73519C9.73518 7.73693 11.0891 7.17612 12.5009 7.17612C13.9126 7.17612 15.2665 7.73693 16.2648 8.73519C17.2631 9.73345 17.8239 11.0874 17.8239 12.4991C17.8239 13.9109 17.2631 15.2648 16.2648 16.2631C15.2665 17.2613 13.9126 17.8222 12.5009 17.8222C11.0891 17.8222 9.73518 17.2613 8.73692 16.2631C7.73866 15.2648 7.17785 13.9109 7.17785 12.4991Z" fill="#FFF9EB"/>
</svg>
