<svg width="40" height="40" viewBox="0 0 40 40" fill="none" xmlns="http://www.w3.org/2000/svg">
<path d="M21.9327 21.2337L23.3327 23.3337H20.8327C20.5827 27.8503 19.9993 32.3503 19.166 36.8003L17.4993 36.5337C18.3327 32.167 18.8993 27.767 19.166 23.3337H16.666L18.066 21.2337C14.3993 19.6503 11.666 13.9337 11.666 10.0003C11.666 7.79019 12.544 5.67057 14.1068 4.10777C15.6696 2.54497 17.7892 1.66699 19.9993 1.66699C21.0937 1.66699 22.1773 1.88254 23.1884 2.30133C24.1994 2.72012 25.1181 3.33395 25.8919 4.10777C26.6657 4.88159 27.2796 5.80025 27.6983 6.8113C28.1171 7.82234 28.3327 8.90598 28.3327 10.0003C28.3327 13.9337 25.5993 19.6503 21.9327 21.2337Z" fill="url(#paint0_linear_972_3362)"/>
<defs>
<linearGradient id="paint0_linear_972_3362" x1="11.666" y1="19.2337" x2="28.3327" y2="19.2337" gradientUnits="userSpaceOnUse">
<stop stop-color="#85ACFA"/>
<stop offset="1" stop-color="#C9E7F8"/>
</linearGradient>
</defs>
</svg>
