<svg width="75" height="67" viewBox="0 0 75 67" fill="none" xmlns="http://www.w3.org/2000/svg">
<path d="M74.4526 58.3683L63.978 54.2445L74.5426 48.8661C74.9939 48.6368 75.1347 48.148 74.8578 47.7751C74.58 47.4005 73.9899 47.2847 73.5406 47.514L61.6664 53.5581L52.6623 50.5666L52.8127 49.612C53.0369 48.1345 52.4343 45.2049 48.747 44.1107V41.4937C48.747 41.3358 48.6895 41.1811 48.5832 41.0502C48.5286 40.9835 43.2712 34.3808 45.3088 25H47.2535C47.5878 25 47.8982 24.8556 48.0716 24.6191L49.4894 22.6894C49.7136 22.3846 49.6647 21.9927 49.3687 21.7324L45.8932 18.675C45.6134 17.8728 44.597 14.0672 49.248 11.1614C49.6331 10.9209 49.7423 10.4813 49.5028 10.1346L48.2872 8.37222C48.1166 8.12465 47.7996 7.9723 47.4556 7.9723H45.1996C44.8403 6.99471 43.8862 5.7505 41.9089 5.06253C42.3553 4.53247 42.6082 3.89371 42.6082 3.22717C42.6082 1.44735 40.8609 0 38.7121 0C36.5634 0 34.816 1.44735 34.816 3.22717C34.816 3.87149 35.044 4.4809 35.454 4.99429C33.333 5.6648 32.3233 6.95741 31.9507 7.9723H29.6956C29.3516 7.9723 29.0345 8.12465 28.864 8.37222L27.6483 10.1346C27.4088 10.4813 27.5181 10.9209 27.9032 11.1614C32.558 14.0703 31.5368 17.8784 31.258 18.675L27.7825 21.7332C27.4864 21.9935 27.4376 22.3846 27.6618 22.6901L29.0796 24.6199C29.253 24.8564 29.5634 25.0008 29.8977 25.0008H31.8424C33.8724 34.3514 28.6217 40.9851 28.5671 41.0525C28.4617 41.1835 28.4042 41.3374 28.4042 41.4953V41.8659L25.741 40.6074C25.2802 40.39 24.6958 40.5233 24.4343 40.9034C24.1728 41.2842 24.3328 41.7691 24.7916 41.9857L28.4042 43.6925V44.1115C24.716 45.2057 24.1143 48.1353 24.3395 49.6168L24.4305 50.1953L20.1665 51.7783C19.6837 51.9576 19.4681 52.4266 19.6846 52.8273C19.8446 53.1217 20.1933 53.2962 20.5593 53.2962C20.6905 53.2962 20.8237 53.274 20.9511 53.2264L24.6901 51.8386L24.7265 52.0711V55.2205C24.7265 55.6585 25.1557 56.014 25.6845 56.014H51.4677C51.9965 56.014 52.4257 55.6585 52.4257 55.2205V52.1996L60.2447 54.7976L38.5761 65.2868L15.2204 53.9802L7.05647 49.9937C6.60047 49.7707 6.01418 49.8969 5.74499 50.2746C5.4758 50.6523 5.62812 51.1387 6.08412 51.3609L12.5975 54.5413L0.590074 58.6825C0.101502 58.8508 -0.129372 59.3157 0.0737209 59.7204C0.226998 60.0251 0.583368 60.2092 0.958898 60.2092C1.08152 60.2092 1.20606 60.1894 1.32676 60.1481L14.6638 55.5482L38.0942 66.8913C38.2437 66.9635 38.4103 67 38.577 67C38.7437 67 38.9114 66.9643 39.0599 66.8913L62.6406 55.4744L73.6306 59.8014C73.7638 59.8537 73.9037 59.8783 74.0416 59.8783C74.3999 59.8783 74.7429 59.7117 74.9076 59.4252C75.1337 59.0301 74.9306 58.5564 74.4526 58.3683Z" fill="#274966" fill-opacity="0.5"/>
</svg>
