<svg width="40" height="40" viewBox="0 0 40 40" fill="none" xmlns="http://www.w3.org/2000/svg">
<path d="M39.4096 12.5289C36.4718 12.3673 33.5574 13.1309 31.0763 14.7123C30.4763 14.0289 29.8596 13.3456 29.2096 12.6956L28.7263 12.2456L28.9596 12.0456C29.7746 11.346 30.3555 10.4131 30.6237 9.373C30.8919 8.33287 30.8346 7.23549 30.4596 6.22894C29.9178 5.09257 29.0576 4.13799 27.9836 3.48117C26.9097 2.82434 25.668 2.49354 24.4096 2.52894V5.86227C25.0026 5.85402 25.5871 6.00412 26.1027 6.29709C26.6183 6.59007 27.0465 7.01531 27.3429 7.52894C27.6263 8.19561 27.3429 8.92894 26.5596 9.71227L26.1763 10.0623C24.4378 8.6137 22.5293 7.3824 20.4929 6.39561C16.2763 4.4956 14.1096 5.37894 13.0429 6.39561C12.7179 6.72142 12.4577 7.10602 12.2763 7.52894L11.9763 8.41227L9.57626 15.6456C11.4763 20.3789 16.0763 28.7956 26.0763 32.4289L34.4096 29.6623C34.6906 29.5577 34.9382 29.3792 35.1263 29.1456L35.4763 28.8456C37.8596 26.4456 36.3263 21.8289 33.1263 17.3456C35.0263 16.2367 37.2142 15.7202 39.4096 15.8623V12.5289ZM33.0929 26.4789H32.9929C31.8429 27.0956 27.0763 25.5289 21.6763 20.1289C21.1096 19.5623 20.5763 19.0123 20.0929 18.4623C19.9263 18.2789 19.7763 18.0789 19.6096 17.8789L18.7263 16.8123L18.2596 16.1623C18.0263 15.8456 17.7929 15.5289 17.5929 15.2289C17.3929 14.9289 17.3263 14.7956 17.1929 14.5789C17.0596 14.3623 16.8263 14.0123 16.6763 13.7289C16.5263 13.4456 16.4596 13.3289 16.3596 13.1123C16.2596 12.8956 16.0763 12.6456 15.9763 12.4123C15.8763 12.1789 15.8263 12.0289 15.7429 11.8456C15.6596 11.6623 15.5596 11.3956 15.4929 11.1789C15.4263 10.9623 15.4096 10.8623 15.3763 10.6956C15.3429 10.5289 15.2763 10.2956 15.2429 10.1289C15.2349 9.99573 15.2349 9.86215 15.2429 9.72894C15.2265 9.58496 15.2265 9.43959 15.2429 9.29561L15.4263 8.77894C15.7096 8.47894 16.9429 8.39561 19.1429 9.39561C20.6132 10.1019 22.0043 10.9623 23.2929 11.9623C22.5904 12.2723 21.8414 12.4638 21.0763 12.5289V15.8623C22.8469 15.7618 24.5649 15.2235 26.0763 14.2956L26.8929 15.0623C27.6263 15.7789 28.2763 16.4956 28.8763 17.1789C27.8713 18.8925 27.4722 20.8943 27.7429 22.8623L31.0763 22.2123C30.9636 21.584 30.9636 20.9406 31.0763 20.3123C33.2263 23.5956 33.6263 25.9623 33.0929 26.4789ZM8.4096 19.1956L4.69293 30.3623C4.42468 31.1821 4.35424 32.0538 4.48739 32.9061C4.62053 33.7584 4.95348 34.567 5.459 35.266C5.96453 35.9649 6.62829 36.5343 7.39602 36.9277C8.16375 37.321 9.01365 37.527 9.87626 37.5289C10.4433 37.5234 11.0059 37.4278 11.5429 37.2456L22.4096 33.6289C16.2765 30.4967 11.3535 25.4213 8.4096 19.1956Z" fill="url(#paint0_linear_972_3369)"/>
<defs>
<linearGradient id="paint0_linear_972_3369" x1="4.42188" y1="20.0277" x2="39.4096" y2="20.0277" gradientUnits="userSpaceOnUse">
<stop stop-color="#85ACFA"/>
<stop offset="1" stop-color="#C9E7F8"/>
</linearGradient>
</defs>
</svg>
