<svg width="121" height="131" viewBox="0 0 121 131" fill="none" xmlns="http://www.w3.org/2000/svg">
<path d="M116.456 87.6334L101.148 80.3576L116.586 70.8684C117.245 70.4638 117.451 69.6014 117.045 68.9434C116.64 68.284 115.777 68.0782 115.12 68.4828L98.0847 78.9534L78.9453 71.2758C78.1655 70.6038 77.2107 69.9416 76.0543 69.3802C77.1897 68.3904 78.2579 66.8728 78.4245 64.5978C78.4735 63.9272 78.0409 63.3168 77.3913 63.1432C77.3339 63.1278 72.1665 61.676 71.2005 55.9318H73.8409C74.4331 55.9318 74.9623 55.5594 75.1597 55.0008L76.1873 52.1112C76.3959 51.5218 76.1901 50.8638 75.6791 50.5012L72.2925 48.0932C74.8097 45.6782 76.2685 42.3196 76.2685 38.793C76.2685 31.6838 70.4851 25.9004 63.3759 25.9004C56.2667 25.9004 50.4833 31.6838 50.4833 38.793C50.4833 42.3196 51.9421 45.6768 54.4593 48.0932L51.0727 50.5012C50.5617 50.8638 50.3545 51.5218 50.5645 52.1112L51.5921 55.0008C51.7909 55.558 52.3201 55.9318 52.9109 55.9318H55.5527C54.6063 61.62 49.5845 63.0802 49.3605 63.1432C48.7109 63.3168 48.2783 63.9272 48.3273 64.5978C48.4827 66.7314 49.4333 68.1972 50.4861 69.1884L37.9295 75.0754C37.2295 75.403 36.9285 76.2374 37.2575 76.9374C37.4955 77.4456 37.9995 77.7438 38.5259 77.7438C38.7247 77.7438 38.9263 77.7018 39.1195 77.6108L44.8973 74.9018C44.8777 74.9424 44.8623 74.9746 44.8581 74.9858C44.7531 75.2252 44.7139 75.4884 44.7517 75.746L45.2361 79.2376V83.7246C45.2361 84.4974 45.8619 85.1246 46.6361 85.1246H80.1185C80.8927 85.1246 81.5185 84.4974 81.5185 83.7246V79.2376L82.0029 75.746C82.0141 75.669 82.0043 75.5934 82.0029 75.5164L95.0439 80.7482L63.3759 99.2576L29.2397 79.3062H29.2383L16.7923 71.9688C16.1259 71.574 15.2677 71.7966 14.8757 72.4644C14.4837 73.1308 14.7049 73.989 15.3713 74.381L25.4107 80.3002L7.86174 87.6068C7.14774 87.9036 6.81034 88.724 7.10854 89.438C7.33254 89.9756 7.85194 90.3004 8.40074 90.3004C8.58134 90.3004 8.76334 90.2654 8.93974 90.1926L28.4291 82.0768L60.6599 100.914L41.5737 112.717C40.9157 113.125 40.7141 113.987 41.1201 114.644C41.3847 115.072 41.8439 115.307 42.3129 115.307C42.5649 115.307 42.8183 115.24 43.0479 115.099L63.4123 102.504L82.5307 113.221C83.2097 113.601 84.0609 113.358 84.4361 112.685C84.8155 112.012 84.5747 111.158 83.8999 110.78L66.1941 100.855L98.2863 82.0992L115.253 90.1646C115.448 90.257 115.652 90.3004 115.854 90.3004C116.377 90.3004 116.878 90.0064 117.119 89.501C117.451 88.801 117.153 87.9652 116.456 87.6334Z" fill="#274966" fill-opacity="0.5"/>
</svg>
