<svg width="50" height="51" viewBox="0 0 50 51" fill="none" xmlns="http://www.w3.org/2000/svg">
<g clip-path="url(#clip0_1435_1336)">
<path d="M1.04849 28.8844C-0.0891011 27.1885 -0.316501 25.0292 0.442316 23.1282C2.1382 19.6225 4.97913 16.8197 8.48284 15.1958C11.0196 13.9175 13.7673 13.1247 16.5879 12.857C15.3589 14.3895 14.1285 16.0246 12.8967 17.7625C10.3898 21.6093 8.24396 25.6855 6.48725 29.9378L5.73108 31.656C3.83693 31.4971 2.11544 30.4783 1.04849 28.8844ZM3.92934 37.8005C2.11956 40.3327 0.820597 43.2019 0.107004 46.2438C-0.337887 48.2202 0.882597 50.188 2.83315 50.6389C3.36398 50.7615 3.91522 50.7614 4.44605 50.6385C7.44325 49.9142 10.2703 48.5988 12.7658 46.7672C15.2093 44.2923 15.2103 40.2787 12.7678 37.8026C10.3255 35.3265 6.36462 35.3255 3.9211 37.8005H3.92934ZM20.4624 44.0907L18.7544 44.8591V45.4797C18.7585 46.9664 19.346 48.3903 20.3875 49.4375C21.3781 50.4138 22.7051 50.9604 24.087 50.9615C28.9967 50.8898 32.9775 46.36 35.0667 42.1426C36.3467 39.5325 37.1317 36.7022 37.381 33.7985C35.8534 35.065 34.2154 36.3315 32.4671 37.598C28.6724 40.139 24.6504 42.3128 20.4541 44.0908L20.4624 44.0907ZM50 6.30924C49.723 15.4976 43.1947 24.61 30.0403 34.172C26.4606 36.5235 22.6841 38.552 18.7544 40.2343V39.046C18.735 34.974 15.4822 31.6777 11.4638 31.6581H10.291C11.9551 27.6759 13.9603 23.8491 16.284 20.2217C25.6971 6.92349 34.675 0.299721 43.728 0C48.2398 0 50 1.86175 50 6.30924ZM37.5017 17.9377C37.5017 15.0233 35.1702 12.6606 32.2941 12.6606C29.4179 12.6606 27.0865 15.0232 27.0865 17.9377C27.0865 20.8521 29.4179 23.2148 32.2941 23.2148C35.1702 23.2148 37.5017 20.8521 37.5017 17.9377Z" fill="url(#paint0_linear_1435_1336)"/>
</g>
<defs>
<linearGradient id="paint0_linear_1435_1336" x1="0" y1="25.4808" x2="50" y2="25.4808" gradientUnits="userSpaceOnUse">
<stop stop-color="#85ACFA"/>
<stop offset="1" stop-color="#C9E7F8"/>
</linearGradient>
<clipPath id="clip0_1435_1336">
<rect width="50" height="50.9615" fill="white"/>
</clipPath>
</defs>
</svg>
