<svg width="20" height="20" viewBox="0 0 20 20" fill="none" xmlns="http://www.w3.org/2000/svg">
<path d="M13.4179 11.6679H12.7595L12.5262 11.4429C13.047 10.8378 13.4276 10.1252 13.6408 9.35588C13.854 8.58658 13.8946 7.77966 13.7595 6.99287C13.3679 4.6762 11.4345 2.8262 9.1012 2.54287C8.28088 2.43909 7.44769 2.52434 6.66539 2.79211C5.88308 3.05987 5.1724 3.50305 4.58773 4.08773C4.00305 4.6724 3.55987 5.38308 3.29211 6.16539C3.02434 6.94769 2.93909 7.78088 3.04287 8.6012C3.3262 10.9345 5.1762 12.8679 7.49287 13.2595C8.27966 13.3946 9.08658 13.354 9.85588 13.1408C10.6252 12.9276 11.3378 12.547 11.9429 12.0262L12.1679 12.2595V12.9179L15.7095 16.4595C16.0512 16.8012 16.6095 16.8012 16.9512 16.4595C17.2929 16.1179 17.2929 15.5595 16.9512 15.2179L13.4179 11.6679ZM8.41787 11.6679C6.34287 11.6679 4.66787 9.99287 4.66787 7.91787C4.66787 5.84287 6.34287 4.16787 8.41787 4.16787C10.4929 4.16787 12.1679 5.84287 12.1679 7.91787C12.1679 9.99287 10.4929 11.6679 8.41787 11.6679Z" fill="#9E9E9E"/>
</svg>
