<svg width="56" height="56" viewBox="0 0 56 56" fill="none" xmlns="http://www.w3.org/2000/svg">
<g clip-path="url(#clip0_1435_1502)">
<path d="M23.3333 39.6662H17.101C16.181 39.6692 15.2696 39.4894 14.4196 39.1373C13.5697 38.7852 12.7981 38.2679 12.1497 37.6152L0.121333 25.5869C0.0536667 26.3849 0 27.1852 0 27.9996C0.0102475 35.0166 2.65286 41.7744 7.4054 46.9369C12.1579 52.0995 18.6745 55.291 25.6667 55.8806V41.9996C25.6667 41.3807 25.4208 40.7872 24.9832 40.3497C24.5457 39.9121 23.9522 39.6662 23.3333 39.6662Z" fill="url(#paint0_linear_1435_1502)"/>
<path d="M47.684 8.11523L43.5073 12.2919C42.4114 13.3818 40.9299 13.9955 39.3843 13.9999H36.1667C35.8572 13.9999 35.5605 14.1228 35.3417 14.3416C35.1229 14.5604 35 14.8571 35 15.1666V17.4999C35 19.047 34.3854 20.5307 33.2915 21.6247C32.1975 22.7187 30.7138 23.3332 29.1667 23.3332C28.8572 23.3332 28.5605 23.4562 28.3417 23.6749C28.1229 23.8937 28 24.1905 28 24.4999V25.6666C28 26.2854 28.2458 26.8789 28.6834 27.3165C29.121 27.7541 29.7145 27.9999 30.3333 27.9999H37.3333C39.1898 27.9999 40.9703 28.7374 42.2831 30.0502C43.5958 31.3629 44.3333 33.1434 44.3333 34.9999V37.2446C44.3334 37.5534 44.4559 37.8496 44.674 38.0682L50.799 44.1956C54.6602 38.7954 56.4679 32.1948 55.8969 25.5808C55.3259 18.9669 52.4136 12.7737 47.684 8.11523Z" fill="url(#paint1_linear_1435_1502)"/>
<path d="M39.666 37.2449V35.0002C39.666 34.3814 39.4202 33.7879 38.9826 33.3503C38.545 32.9127 37.9515 32.6669 37.3327 32.6669H30.3327C28.4762 32.6669 26.6957 31.9294 25.3829 30.6166C24.0702 29.3039 23.3327 27.5234 23.3327 25.6669V24.5002C23.3327 22.9531 23.9473 21.4694 25.0412 20.3754C26.1352 19.2815 27.6189 18.6669 29.166 18.6669C29.4754 18.6669 29.7722 18.544 29.991 18.3252C30.2098 18.1064 30.3327 17.8096 30.3327 17.5002V15.1669C30.3327 13.6198 30.9473 12.136 32.0412 11.0421C33.1352 9.94812 34.6189 9.33354 36.166 9.33354H39.3837C39.6922 9.33172 39.9877 9.20947 40.2074 8.99287L44.083 5.11721C40.4545 2.55444 36.2672 0.893815 31.8685 0.27311C27.4698 -0.347594 22.9865 0.089511 18.7906 1.54816C14.5946 3.00682 10.8069 5.44497 7.7418 8.66034C4.67665 11.8757 2.42238 15.7756 1.16602 20.0365L15.446 34.3165C15.6632 34.5338 15.9211 34.706 16.205 34.8233C16.4889 34.9406 16.7932 35.0008 17.1004 35.0002H23.3327C25.1892 35.0002 26.9697 35.7377 28.2824 37.0505C29.5952 38.3632 30.3327 40.1437 30.3327 42.0002V55.8812C36.9284 55.3384 43.1166 52.4696 47.793 47.7869L41.374 41.3679C40.2841 40.272 39.6704 38.7905 39.666 37.2449Z" fill="url(#paint2_linear_1435_1502)"/>
</g>
<defs>
<linearGradient id="paint0_linear_1435_1502" x1="0" y1="40.7337" x2="25.6667" y2="40.7337" gradientUnits="userSpaceOnUse">
<stop stop-color="#85ACFA"/>
<stop offset="1" stop-color="#C9E7F8"/>
</linearGradient>
<linearGradient id="paint1_linear_1435_1502" x1="28" y1="26.1554" x2="56.0003" y2="26.1554" gradientUnits="userSpaceOnUse">
<stop stop-color="#85ACFA"/>
<stop offset="1" stop-color="#C9E7F8"/>
</linearGradient>
<linearGradient id="paint2_linear_1435_1502" x1="1.16602" y1="27.9401" x2="47.793" y2="27.9401" gradientUnits="userSpaceOnUse">
<stop stop-color="#85ACFA"/>
<stop offset="1" stop-color="#C9E7F8"/>
</linearGradient>
<clipPath id="clip0_1435_1502">
<rect width="56" height="56" fill="white"/>
</clipPath>
</defs>
</svg>
