<svg width="25" height="25" viewBox="0 0 25 25" fill="none" xmlns="http://www.w3.org/2000/svg">
<path d="M12.2934 3C12.9342 3.00372 14.5375 3.01983 16.2416 3.09046L16.8464 3.11772C18.5613 3.20075 20.275 3.3445 21.1259 3.58862C22.2599 3.91825 23.1504 4.8774 23.4516 6.0943C23.9316 8.02747 23.9916 11.7971 23.9988 12.7104L24 12.8988V13.1144C23.9916 14.0277 23.9316 17.7986 23.4516 19.7305C23.1468 20.9512 22.2551 21.9116 21.1259 22.2362C20.275 22.4803 18.5613 22.6241 16.8464 22.7071L16.2416 22.7356C14.5375 22.805 12.9342 22.8224 12.2934 22.8248L12.0114 22.8261H11.7054C10.3493 22.8174 4.67783 22.7542 2.87294 22.2362C1.74009 21.9066 0.848443 20.9474 0.547228 19.7305C0.0672035 17.7974 0.00720036 14.0277 0 13.1144V12.7104C0.00720036 11.7971 0.0672035 8.02623 0.547228 6.0943C0.852043 4.87368 1.74369 3.9133 2.87414 3.58986C4.67783 3.07063 10.3505 3.00744 11.7066 3H12.2934ZM9.59928 8.57644V17.2509L16.7996 12.9137L9.59928 8.57644Z" fill="#FFF9EB"/>
</svg>
