<svg width="48" height="48" viewBox="0 0 48 48" fill="none" xmlns="http://www.w3.org/2000/svg">
<path d="M14.8938 29.215L22.7337 33.74V24.6838L14.8875 20.1588V29.215H14.8938ZM11.515 31.1613L22.7337 37.6325V43.9988L6 34.3438V15.0275L11.515 18.2113V31.1613ZM23.5338 14.2413L15.695 18.7713L23.5338 23.2963L31.3725 18.7713L23.5338 14.2463V14.2413ZM23.5338 10.3538L32.9675 15.8175L38.4825 12.6338L23.5338 4L6.8225 13.6488L12.3362 16.825L23.5338 10.3538ZM35.545 31.1613V24.58L32.1738 26.5263V29.215L24.3337 33.7463V24.69L41.0675 15.035V34.345L24.3337 44.0063V37.6463L35.545 31.1613Z" fill="url(#paint0_linear_1490_1923)"/>
<defs>
<linearGradient id="paint0_linear_1490_1923" x1="8.88791" y1="4" x2="11.7945" y2="44.7349" gradientUnits="userSpaceOnUse">
<stop stop-color="#5F82FA"/>
<stop offset="1" stop-color="#15214D"/>
</linearGradient>
</defs>
</svg>
