<svg width="139" height="123" viewBox="0 0 139 123" fill="none" xmlns="http://www.w3.org/2000/svg">
<path d="M137.419 103.785L117.956 94.5139L137.586 82.4237C138.425 81.9081 138.686 80.8092 138.17 79.9707C137.656 79.1304 136.557 78.87 135.723 79.3838L114.338 92.555L91.9755 83.5654C91.9523 83.5565 91.9274 83.5601 91.9043 83.553C91.0321 82.57 89.9053 81.5246 88.4457 80.6076C91.1157 78.7593 92.4703 75.6195 92.8672 73.6571C93.0363 72.8276 92.6003 71.9926 91.8224 71.6608C90.4553 71.0774 89.2788 69.859 88.314 68.0339C96.4308 55.1106 99.2023 42.4674 96.5572 30.4379C92.3386 11.2564 75.9626 0.714703 75.2666 0.275839C74.7344 -0.0613373 74.0615 -0.0916647 73.5044 0.197343C72.9455 0.486351 72.577 1.05009 72.5414 1.67985L72.1338 8.61425C69.7717 7.80789 67.0626 7.65446 65.3556 7.65446C64.8821 7.65446 64.6044 7.66695 64.6044 7.66695C63.8105 7.70441 63.1341 8.26459 62.9508 9.04063C61.2687 16.2105 48.6289 22.7471 43.903 24.6613C43.0771 24.9967 42.6232 25.8905 42.8439 26.7558L44.5438 33.4582C44.7414 34.2414 45.4427 34.7945 46.2491 34.8016C45.9803 35.1709 45.8592 35.6329 45.9198 36.0914C45.9874 36.6088 46.2793 37.0708 46.7172 37.3545L51.5321 40.4783C52.2103 40.9189 53.1038 40.8476 53.7019 40.2963L56.5908 37.6417H62.6375C63.5311 40.5479 56.9397 52.5149 47.981 64.0057C47.625 64.4624 47.5111 65.0654 47.6802 65.6202C47.8493 66.1768 48.2747 66.6157 48.8247 66.7976L55.3003 68.9438C54.4442 70.2693 53.4474 71.1791 52.3242 71.659C51.5463 71.9926 51.1102 72.8258 51.2775 73.6553C51.6442 75.4679 52.8404 78.2688 55.1188 80.1455L42.4185 85.8507C41.5214 86.2539 41.1209 87.3083 41.5231 88.2092C41.8186 88.8711 42.4665 89.2635 43.1483 89.2635C43.3922 89.2635 43.6378 89.2136 43.8745 89.1066L50.327 86.2076C50.044 86.7124 49.8874 87.0621 49.8624 87.1192C49.7432 87.4082 49.6987 87.7257 49.7414 88.0362L50.3199 92.4926V98.2157C50.3199 99.2004 51.1156 99.9997 52.0999 99.9997H92.0431C93.0274 99.9997 93.8231 99.2004 93.8231 98.2157V92.4908L94.3571 88.368L111.258 95.1632L70.9999 118.749L27.5982 93.3239L27.5911 93.3204C27.5875 93.3186 27.584 93.315 27.584 93.315L13.0752 85.0033C12.2226 84.5145 11.135 84.8107 10.6473 85.667C10.1595 86.5215 10.4568 87.6116 11.3094 88.1004L22.5982 94.5674L-0.616571 103.737C-1.53505 104.099 -1.98361 105.136 -1.62405 106.051C-1.34815 106.754 -0.677091 107.182 0.0331289 107.182C0.250289 107.182 0.471009 107.143 0.684609 107.057L26.548 96.842L66.8721 120.464L42.212 135.749C41.3754 136.268 41.1191 137.367 41.6353 138.204C41.9717 138.75 42.5555 139.05 43.1518 139.05C43.4722 139.05 43.7944 138.964 44.0864 138.784L69.9782 122.733L94.2841 136.391C95.1474 136.877 96.2279 136.566 96.7067 135.708C97.1891 134.848 96.8829 133.762 96.025 133.28L74.1897 121.012L115.046 97.0792L135.89 107.009C136.137 107.127 136.397 107.182 136.653 107.182C137.319 107.182 137.958 106.807 138.263 106.163C138.684 105.273 138.307 104.21 137.419 103.785Z" fill="#274966" fill-opacity="0.5"/>
</svg>
