<svg width="96" height="164" viewBox="0 0 96 164" fill="none" xmlns="http://www.w3.org/2000/svg">
<path d="M94.9333 144.006L74.5078 134.241L95.1089 121.506C95.9887 120.963 96.2633 119.806 95.7235 118.922C95.1817 118.037 94.031 117.761 93.1549 118.304L70.1403 132.529L50.6209 124.652C49.67 121.861 47.645 119.024 43.7856 117.483L46.3355 108.976C46.5354 108.311 46.3505 107.586 45.8573 107.095C45.7247 106.962 32.8518 93.8477 36.6365 72.0558H40.425C41.0769 72.0558 41.6822 71.7138 42.0203 71.1539L44.785 66.5839C45.2222 65.8623 45.1269 64.934 44.5496 64.3177L38.2879 57.63L48.5697 31.1141C48.8294 30.4451 48.6874 29.6841 48.2017 29.1561C47.9159 28.8441 41.3907 21.8445 31.6843 20.4784L31.1706 17.2501V14.4878H33.3039C34.3351 14.4878 35.172 13.646 35.172 12.6087V6.47725C35.172 5.43998 34.3351 4.59815 33.3039 4.59815H31.3611V1.8791C31.3611 0.841835 30.5242 0 29.493 0H18.9515C17.9204 0 17.0835 0.841835 17.0835 1.8791V4.59815H15.1407C14.1095 4.59815 13.2726 5.43998 13.2726 6.47725V12.6087C13.2726 13.646 14.1095 14.4878 15.1407 14.4878H17.2721V17.2501L16.7584 20.4784C7.05196 21.8464 0.528655 28.8441 0.240973 29.1561C-0.242856 29.6841 -0.386695 30.4432 -0.127034 31.1141L10.1548 57.63L3.89305 64.3177C3.31581 64.934 3.22054 65.8604 3.65767 66.5839L6.42241 71.1539C6.76053 71.7138 7.36579 72.0558 8.01774 72.0558H11.8062C15.0286 90.6119 6.19637 102.841 3.41482 106.156L-2.94968 103.273C-3.88932 102.847 -4.99708 103.268 -5.41926 104.215C-5.84332 105.16 -5.423 106.274 -4.48336 106.699L2.35189 109.796L4.65522 117.483C1.30391 118.821 -0.661302 121.136 -1.74478 123.551C-1.86247 123.577 -1.98389 123.579 -2.09784 123.631L-11.4662 127.856C-12.4077 128.28 -12.828 129.391 -12.4058 130.34C-12.0939 131.037 -11.4139 131.45 -10.7003 131.45C-10.4444 131.45 -10.1847 131.398 -9.93625 131.285L-2.87123 128.1C-2.92914 128.934 -2.90298 129.703 -2.82265 130.351L-2.06982 136.161V143.619C-2.06982 144.04 -1.90543 144.41 -1.67379 144.724L-21.3202 133.168L-36.6758 124.062C-37.565 123.534 -38.7082 123.831 -39.2331 124.727C-39.7581 125.621 -39.461 126.773 -38.5718 127.299L-26.435 134.496L-49.8494 144.303C-50.8021 144.702 -51.2523 145.803 -50.8562 146.761C-50.5574 147.483 -49.8624 147.919 -49.1302 147.919C-48.891 147.919 -48.6482 147.872 -48.4128 147.774L-22.4056 136.881L23.2836 163.743C23.575 163.914 23.9 164 24.2251 164C24.5501 164 24.877 163.915 25.1666 163.743L71.0668 136.757L93.3286 147.402C93.5882 147.526 93.861 147.584 94.13 147.584C94.8286 147.584 95.4974 147.19 95.8187 146.511C96.2614 145.574 95.8654 144.452 94.9333 144.006ZM24.2232 159.943L-0.429655 145.45C-0.349329 145.461 -0.278344 145.497 -0.196149 145.497H48.6407C48.7229 145.497 48.7939 145.459 48.8742 145.45L24.2232 159.943ZM50.1128 144.72C50.3463 144.407 50.5088 144.038 50.5088 143.617V136.159L51.2635 130.34C51.3139 129.934 51.3419 129.479 51.3419 128.992L66.477 135.099L50.1128 144.72Z" fill="#274966" fill-opacity="0.5"/>
</svg>
