<svg width="130" height="159" viewBox="0 0 130 159" fill="none" xmlns="http://www.w3.org/2000/svg">
<path d="M176.701 138.516L151.841 128.729L176.915 115.966C177.985 115.422 178.32 114.262 177.663 113.377C177.003 112.488 175.603 112.213 174.536 112.757L146.355 127.101L124.985 120.001L125.342 117.736C125.874 114.23 124.444 107.277 115.693 104.681V98.4702C115.693 98.0955 115.556 97.7282 115.304 97.4175C115.174 97.2594 102.697 81.5902 107.533 59.3284H112.148C112.942 59.3284 113.678 58.9857 114.09 58.4245L117.455 53.8449C117.987 53.1218 117.871 52.1915 117.168 51.5739L108.92 44.3184C108.256 42.4146 105.844 33.3833 116.882 26.4874C117.796 25.9169 118.055 24.8736 117.487 24.0507L114.602 19.8684C114.197 19.2809 113.444 18.9193 112.628 18.9193H107.274C106.421 16.5994 104.157 13.6467 99.4638 12.0141C100.523 10.7562 101.124 9.24029 101.124 7.6585C101.124 3.43474 96.9765 0 91.8767 0C86.777 0 82.6299 3.43474 82.6299 7.6585C82.6299 9.18756 83.1711 10.6338 84.1442 11.8521C79.1104 13.4433 76.714 16.5109 75.8296 18.9193H70.4775C69.6612 18.9193 68.9087 19.2809 68.504 19.8684L65.6187 24.0507C65.0503 24.8736 65.3095 25.9169 66.2235 26.4874C77.271 33.3908 74.8474 42.4277 74.1857 44.3184L65.937 51.5758C65.2345 52.1934 65.1185 53.1218 65.6506 53.8468L69.0155 58.4264C69.4271 58.9876 70.1637 59.3303 70.9572 59.3303H75.5726C80.3904 81.5206 67.9287 97.2631 67.7991 97.4232C67.549 97.7339 67.4126 98.0992 67.4126 98.4739V99.3533L61.092 96.3668C59.9984 95.8508 58.6115 96.1672 57.9908 97.0692C57.3701 97.973 57.7498 99.1236 58.8388 99.6377L67.4126 103.688V104.682C58.6592 107.279 57.2314 114.232 57.7657 117.747L57.9817 119.12L47.8618 122.877C46.7159 123.302 46.2043 124.415 46.7182 125.366C47.0979 126.065 47.9255 126.479 48.794 126.479C49.1055 126.479 49.4215 126.426 49.7239 126.313L58.5978 123.02L58.6842 123.572V131.046C58.6842 132.085 59.7028 132.929 60.9578 132.929H122.15C123.405 132.929 124.424 132.085 124.424 131.046V123.877L142.981 130.042L91.5539 154.934L36.1231 128.102L16.7474 118.642C15.6651 118.113 14.2737 118.412 13.6348 119.308C12.9959 120.205 13.3574 121.359 14.4396 121.886L29.898 129.434L1.40044 139.262C0.240898 139.661 -0.307042 140.764 0.174964 141.725C0.538743 142.448 1.38453 142.885 2.27579 142.885C2.56681 142.885 2.86238 142.838 3.14885 142.74L34.8021 131.823L90.4103 158.742C90.7649 158.913 91.1606 159 91.5562 159C91.9518 159 92.3497 158.915 92.7021 158.742L148.667 131.648L174.75 141.917C175.066 142.041 175.398 142.099 175.725 142.099C176.576 142.099 177.39 141.704 177.781 141.024C178.317 140.086 177.835 138.962 176.701 138.516Z" fill="#274966" fill-opacity="0.5"/>
</svg>
