<svg xmlns="http://www.w3.org/2000/svg" aria-hidden="true" overflow="hidden" style="position:absolute;width:0;height:0">
<defs>
<linearGradient id="all-g-fill" x1="0%" y1="0%" x2="100%" y2="0%">
    <stop offset="0%" stop-color="#85acfa" />
    <stop offset="100%" stop-color="#c9e7f8" />
  </linearGradient>
    <symbol id="all-g-icon" viewBox="0 0 32 32"><path stroke-linecap="round" stroke-width="1.561" d="M6.666 12.666s-3.429 1.333-4 6m22.667-6s3.429 1.333 4 6m-17.334-6s3.2.778 4 4.667c.8-3.889 4-4.667 4-4.667m-6.666 10s-2.8.5-4 4m9.333-4s2.8.5 4 4"/><path stroke-linecap="round" stroke-linejoin="round" stroke-width="1.561" d="M15.999 24a3.333 3.333 0 1 0 0-6.665A3.333 3.333 0 0 0 16 24zM22.666 13.333a4 4 0 1 0 0-8 4 4 0 0 0 0 8zM9.332 13.333a4 4 0 1 0 0-8 4 4 0 0 0 0 8z"/></symbol>
    <symbol id="arrow-hero-icon" viewBox="0 0 37 32"><path d="m19.828-.001-2.537 2.815 10.04 9.605-27.333-.284v3.714l27.333.284-10.058 11.14 2.555 2.44 14.395-15.97L19.828-.001z"/></symbol>
    <symbol id="discounts-icon" viewBox="0 0 32 32"><path d="m31.768 23.884-4.443-2.134 4.481-2.782c.191-.119.251-.372.133-.565s-.368-.253-.559-.135l-4.882 3.031-5.105-2.069c-.005-.002-.011-.001-.016-.003a3.64 3.64 0 0 0-.79-.678c.61-.425.919-1.148 1.009-1.6a.41.41 0 0 0-.239-.459c-.312-.134-.581-.415-.801-.835 1.853-2.974 2.485-5.884 1.882-8.652-.963-4.414-4.701-6.84-4.86-6.941-.122-.078-.275-.085-.402-.018s-.212.196-.22.341l-.093 1.596c-.539-.186-1.158-.221-1.547-.221-.108 0-.171.003-.171.003a.409.409 0 0 0-.377.316c-.384 1.65-3.269 3.154-4.348 3.595a.412.412 0 0 0-.242.482l.388 1.542c.045.18.205.308.389.309a.416.416 0 0 0 .107.588l1.099.719a.402.402 0 0 0 .495-.042l.659-.611h1.38c.204.669-1.301 3.423-3.346 6.067-.081.105-.107.244-.069.372s.136.229.261.271l1.478.494c-.195.305-.423.514-.679.625a.412.412 0 0 0-.239.459c.084.417.357 1.062.877 1.494l-2.899 1.313a.412.412 0 0 0 .167.786.392.392 0 0 0 .166-.036l1.473-.667c-.065.116-.1.197-.106.21a.424.424 0 0 0-.028.211l.132 1.026v1.317c0 .227.182.411.406.411h9.118a.408.408 0 0 0 .406-.411v-1.317l.122-.949 3.858 1.564-9.19 5.428-9.909-5.852-.002-.001-3.312-1.913c-.195-.112-.443-.044-.554.153s-.043.447.151.56l2.577 1.488-5.299 2.11a.411.411 0 0 0 .148.792c.05 0 .1-.009.149-.029l5.904-2.351 9.205 5.436-5.629 3.518a.414.414 0 0 0-.132.565.405.405 0 0 0 .559.134l5.91-3.694 5.548 3.143c.197.112.444.04.553-.157s.04-.448-.156-.559l-4.984-2.823 9.326-5.508 4.758 2.285a.405.405 0 0 0 .541-.194.412.412 0 0 0-.193-.547z"/></symbol>
    <symbol id="facebook-icon" viewBox="0 0 32 32"><path d="M1.28 16.082c0 7.319 5.316 13.404 12.267 14.638V20.089h-3.68V16h3.68v-3.271c0-3.68 2.372-5.724 5.725-5.724 1.063 0 2.208.164 3.271.327v3.762h-1.881c-1.799 0-2.208.9-2.208 2.044V16h3.925l-.654 4.089h-3.271V30.72c6.951-1.234 12.267-7.319 12.267-14.638 0-8.141-6.624-14.802-14.72-14.802S1.281 7.941 1.281 16.082z"/></symbol>
    <symbol id="fun-stories-icon" viewBox="0 0 13 32"><path d="M10.414 11.266v-.548H2.48v.548c0 .145.052.285.145.388s.219.161.351.161h6.943c.132 0 .258-.058.351-.161s.145-.242.145-.388zM11.406 8.525H1.488v1.096h9.918V8.525zM9.368 7.428c.411-.679.598-1.494.533-2.307s-.381-1.578-.895-2.166L6.447 0 3.888 2.955c-.513.588-.829 1.352-.895 2.166s.122 1.628.533 2.307h5.842zM2.082 26.067h8.728l-.372-2.193H2.454l-.372 2.193zM3.472 12.91a66.334 66.334 0 0 1-.828 9.868h7.612a66.328 66.328 0 0 1-.833-9.868H3.472zM12.893 29.357H0v2.193h12.893v-2.193zM11.901 27.712c0-.145-.052-.285-.145-.388s-.219-.161-.351-.161H1.487c-.132 0-.258.058-.351.161s-.145.242-.145.388v.548h10.91v-.548z"/></symbol>
    <symbol id="get-drunk-g-icon" viewBox="0 0 32 32"><path d="M9.6 11.2a.8.8 0 1 1 0-1.6h12.8a.8.8 0 1 1 0 1.6H9.6z"/><path d="m4.427 7.488 10.4 11.2a1.605 1.605 0 0 0 1.813.378c.202-.088.383-.217.533-.378l10.4-11.2c.95-1.024.224-2.688-1.173-2.688H5.6c-1.397 0-2.123 1.664-1.173 2.688zM22.731 8 16 15.248 9.269 8h13.462z"/><path d="M17.6 16.8V28h-3.2V16.8h3.2z"/><path d="M23.2 30.4H8.8c0-2.36 3.28-4 7.2-4s7.2 1.64 7.2 4zM20.509 1.165a1.2 1.2 0 1 1 .583-2.329l6.4 1.6a1.2 1.2 0 1 1-.583 2.329l-6.4-1.6z"/><path d="M17.94 12.379a1.2 1.2 0 0 1-1.519.76 1.193 1.193 0 0 1-.694-.602 1.207 1.207 0 0 1-.066-.917l4-12a1.198 1.198 0 0 1 1.932-.541 1.194 1.194 0 0 1 .345 1.298l-3.998 12z"/></symbol>
    <symbol id="g-f-2-icon" viewBox="0 0 32 32"><path d="M16.666 9.333a2.658 2.658 0 0 1 2.667-2.667H24c1.467 0 2.667 1.2 2.667 2.667v2.88C25.12 12.76 24 14.226 24 15.96v2.707h-7.333V9.334zm-8.667 6.613v2.72h7.333V9.333a2.658 2.658 0 0 0-2.667-2.667H7.998a2.675 2.675 0 0 0-2.667 2.667V12.2c1.547.547 2.667 2.027 2.667 3.747zm19.547-2.573c-1.307.213-2.213 1.453-2.213 2.787V20H6.666v-4a2.668 2.668 0 0 0-5.334 0v6.667c0 1.467 1.2 2.667 2.667 2.667v2.667h2.667v-2.667h18.667v2.667H28v-2.667c1.467 0 2.667-1.2 2.667-2.667V16a2.672 2.672 0 0 0-3.12-2.627z"/></symbol>
    <symbol id="info-icon" viewBox="0 0 32 32"><path d="M13.846 23.077h3.077v-9.231h-3.077v9.231zm1.539-12.308c.436 0 .802-.148 1.097-.443s.443-.661.442-1.095c-.001-.435-.149-.8-.443-1.095s-.659-.443-1.095-.443c-.436 0-.801.148-1.095.443s-.442.661-.443 1.095c-.001.435.147.801.443 1.097s.662.444 1.095.442zm0 20c-2.128 0-4.128-.404-6-1.212s-3.5-1.904-4.885-3.288c-1.385-1.384-2.481-3.012-3.288-4.885s-1.211-3.873-1.212-6c-.001-2.127.403-4.127 1.212-6S3.117 5.883 4.5 4.499C5.883 3.115 7.511 2.02 9.385 1.211s3.874-1.212 6-1.212 4.126.404 6 1.212 3.502 1.904 4.885 3.288c1.382 1.384 2.479 3.012 3.289 4.885s1.214 3.873 1.211 6-.407 4.127-1.212 6c-.805 1.873-1.901 3.501-3.288 4.885s-3.015 2.48-4.885 3.289c-1.87.809-3.87 1.213-6 1.211zm0-3.077c3.436 0 6.346-1.192 8.731-3.577s3.577-5.295 3.577-8.731-1.192-6.346-3.577-8.731-5.295-3.577-8.731-3.577-6.346 1.192-8.731 3.577-3.577 5.295-3.577 8.731 1.192 6.346 3.577 8.731 5.295 3.577 8.731 3.577z"/></symbol>
    <symbol id="instagram-icon" viewBox="0 0 32 32"><path d="M8.32 2.56a5.763 5.763 0 0 0-5.76 5.758v15.361a5.76 5.76 0 0 0 5.76 5.76h15.361a5.759 5.759 0 0 0 5.758-5.761V8.317c-.001-1.527-.608-2.991-1.687-4.071s-2.544-1.687-4.071-1.687H8.32zm17.019 5.767a1.66 1.66 0 1 1-3.318 0 1.66 1.66 0 0 1 3.318 0zm-9.336 3.071a4.603 4.603 0 1 0 .001 9.206 4.603 4.603 0 0 0-.001-9.206zm-6.815 4.601a6.814 6.814 0 1 1 13.627 0 6.814 6.814 0 0 1-13.627 0z"/></symbol>
    <symbol id="kids-g-icon" viewBox="0 0 32 32"><path d="m17.546 16.987 1.12 1.68h-2c-.2 3.613-.667 7.213-1.333 10.773L14 29.227a82.685 82.685 0 0 0 1.333-10.56h-2l1.12-1.68C11.52 15.72 9.333 11.147 9.333 8a6.67 6.67 0 0 1 11.381-4.715 6.665 6.665 0 0 1 1.953 4.714c0 3.147-2.187 7.72-5.12 8.987z"/></symbol>
    <symbol id="like-heart-icon" viewBox="0 0 32 32"><path stroke-linejoin="miter" stroke-linecap="butt" stroke-miterlimit="4" stroke-width="2.9091" d="M22 5.455c3.305 0 5.878 2.564 5.878 5.879-0 2.035-0.905 4.001-2.797 6.315-1.908 2.334-4.663 4.841-8.125 7.98l-0.003 0.001-0.954 0.868-0.953-0.868-0.003-0.001-2.462-2.243c-2.325-2.139-4.233-3.987-5.663-5.737-1.892-2.314-2.797-4.28-2.797-6.315 0-3.315 2.574-5.879 5.879-5.879 1.88 0 3.709 0.883 4.896 2.266l1.104 1.287 1.104-1.287c1.187-1.383 3.016-2.266 4.896-2.266z"></path></symbol>    
    <symbol id="new-collections-icon" viewBox="0 0 36 32"><path d="m35.559 27.877-5.003-1.97 5.046-2.569c.216-.11.283-.343.151-.521s-.415-.234-.629-.125l-5.671 2.887-4.3-1.429.072-.456c.107-.706-.181-2.105-1.942-2.628v-1.25a.337.337 0 0 0-.078-.212c-.026-.032-2.537-3.185-1.564-7.666h.929c.16 0 .308-.069.391-.182l.677-.922a.33.33 0 0 0-.058-.457l-1.66-1.46c-.134-.383-.619-2.201 1.602-3.589.184-.115.236-.325.122-.49l-.581-.842a.48.48 0 0 0-.397-.191h-1.078c-.172-.467-.627-1.061-1.572-1.39a1.36 1.36 0 0 0 .334-.877c0-.85-.835-1.541-1.861-1.541s-1.861.691-1.861 1.541c0 .308.109.599.305.844-1.013.32-1.495.938-1.673 1.422h-1.077a.48.48 0 0 0-.397.191l-.581.842c-.114.166-.062.376.122.49 2.223 1.389 1.735 3.208 1.602 3.589l-1.66 1.461c-.141.124-.165.311-.058.457l.677.922a.484.484 0 0 0 .391.182h.929c.97 4.466-1.538 7.634-1.564 7.666a.34.34 0 0 0-.078.212v.177l-1.272-.601c-.22-.104-.499-.04-.624.141s-.048.413.171.517l1.725.815v.2c-1.762.523-2.049 1.922-1.941 2.629l.043.276-2.037.756c-.231.086-.334.31-.23.501.076.141.243.224.418.224a.55.55 0 0 0 .187-.033l1.786-.663.017.111v1.504c0 .209.205.379.458.379h12.314c.253 0 .458-.17.458-.379v-1.443l3.734 1.241-10.349 5.01-11.155-5.4-3.899-1.904c-.218-.107-.498-.046-.626.134s-.056.413.162.519l3.111 1.519-5.735 1.978c-.233.08-.344.302-.247.496.073.146.243.233.423.233a.537.537 0 0 0 .176-.029l6.37-2.197 11.191 5.418a.538.538 0 0 0 .462 0l11.262-5.453 5.249 2.067c.064.025.13.037.196.037.171 0 .335-.08.414-.216.108-.189.011-.415-.217-.505z"/></symbol>
    <symbol id="party-g-icon" viewBox="0 0 32 32"><path d="M31.528 10.023a11.258 11.258 0 0 0-6.667 1.747 33.77 33.77 0 0 0-1.493-1.613l-.387-.36.187-.16a4.197 4.197 0 0 0 1.2-4.653 5.196 5.196 0 0 0-4.84-2.96v2.667c.474-.007.942.113 1.354.348s.755.575.992.985c.227.533 0 1.12-.627 1.747l-.307.28a22.266 22.266 0 0 0-4.547-2.933c-3.373-1.52-5.107-.813-5.96 0a2.9 2.9 0 0 0-.613.907l-.24.707-1.92 5.787c1.52 3.787 5.2 10.52 13.2 13.427l6.667-2.213a1.33 1.33 0 0 0 .573-.413l.28-.24c1.907-1.92.68-5.613-1.88-9.2a8.846 8.846 0 0 1 5.027-1.187v-2.667zm-5.054 11.16h-.08c-.92.493-4.733-.76-9.053-5.08-.453-.453-.88-.893-1.267-1.333-.133-.147-.253-.307-.387-.467l-.707-.853-.373-.52c-.187-.253-.373-.507-.533-.747s-.213-.347-.32-.52c-.107-.173-.293-.453-.413-.68s-.173-.32-.253-.493c-.08-.173-.227-.373-.307-.56s-.12-.307-.187-.453c-.067-.147-.147-.36-.2-.533s-.067-.253-.093-.387c-.027-.133-.08-.32-.107-.453a2.847 2.847 0 0 1 0-.32 1.549 1.549 0 0 1 0-.347l.147-.413c.227-.24 1.213-.307 2.973.493a18.445 18.445 0 0 1 3.32 2.053 5.556 5.556 0 0 1-1.773.453v2.667a8.574 8.574 0 0 0 4-1.253l.653.613a30.1 30.1 0 0 1 1.587 1.693 7.084 7.084 0 0 0-.907 4.547l2.667-.52a4.312 4.312 0 0 1 0-1.52c1.72 2.627 2.04 4.52 1.613 4.933zM6.728 15.356l-2.973 8.933a4.382 4.382 0 0 0 .613 3.923c.404.559.935 1.015 1.55 1.329s1.294.479 1.984.481a4.254 4.254 0 0 0 1.333-.227l8.693-2.893a24.935 24.935 0 0 1-11.2-11.547z"/></symbol>
    <symbol id="promo-order-icon" viewBox="0 0 30 32"><path d="m28.447 21.407-3.739-1.777 3.771-2.318a.341.341 0 1 0-.358-.583l-4.161 2.558-4.675-1.875a3.282 3.282 0 0 0-.706-.463c.277-.242.538-.613.579-1.168a.341.341 0 0 0-.252-.355c-.014-.004-1.276-.358-1.512-1.762h.645a.341.341 0 0 0 .322-.227l.251-.706a.341.341 0 0 0-.124-.393l-.827-.588c.615-.59.971-1.41.971-2.272 0-1.737-1.413-3.149-3.149-3.149s-3.149 1.413-3.149 3.149c0 .861.356 1.682.971 2.272l-.827.588a.342.342 0 0 0-.124.393l.251.706a.343.343 0 0 0 .322.227h.645c-.231 1.389-1.458 1.746-1.513 1.762a.34.34 0 0 0-.252.355c.038.521.27.879.527 1.121L9.267 18.34a.341.341 0 0 0 .146.652.34.34 0 0 0 .145-.032l1.411-.662-.01.021c-.026.058-.035.123-.026.186l.118.853v1.096c0 .189.153.342.342.342h8.179a.342.342 0 0 0 .342-.342v-1.096l.118-.853c.003-.019 0-.037 0-.056l3.186 1.278-7.736 4.521-8.339-4.874-3.04-1.792a.341.341 0 1 0-.347.589l2.452 1.446-4.287 1.785a.342.342 0 1 0 .264.632l4.761-1.983 7.873 4.601-4.662 2.883a.342.342 0 0 0 .36.582l4.974-3.077 4.67 2.618a.34.34 0 1 0 .334-.596l-4.325-2.424 7.839-4.582 4.145 1.97a.342.342 0 0 0 .294-.618z"/></symbol>
    <symbol id="search-icon" viewBox="0 0 32 32"><path d="M21.469 18.669h-1.053l-.373-.36a8.666 8.666 0 0 0 1.973-7.12c-.627-3.707-3.72-6.667-7.453-7.12a8.663 8.663 0 0 0-7.221 2.472 8.663 8.663 0 0 0-2.472 7.221c.453 3.733 3.413 6.827 7.12 7.453a8.67 8.67 0 0 0 7.12-1.973l.36.373v1.053l5.667 5.667c.547.547 1.44.547 1.987 0s.547-1.44 0-1.987l-5.653-5.68zm-8 0c-3.32 0-6-2.68-6-6s2.68-6 6-6 6 2.68 6 6-2.68 6-6 6z"/></symbol>
    <symbol id="sun-icon" viewBox="0 0 32 32"><path d="M14.5 4.5v-2A1.503 1.503 0 0 1 16 1a1.503 1.503 0 0 1 1.5 1.5v2A1.503 1.503 0 0 1 16 6a1.503 1.503 0 0 1-1.5-1.5zm10 11.5a8.498 8.498 0 0 1-5.248 7.853 8.502 8.502 0 0 1-9.263-1.842 8.498 8.498 0 0 1 1.289-13.078A8.5 8.5 0 0 1 16 7.5a8.51 8.51 0 0 1 8.5 8.5zm-3 0a5.505 5.505 0 0 0-3.395-5.082 5.497 5.497 0 0 0-5.994 1.192 5.498 5.498 0 0 0 .834 8.462 5.502 5.502 0 0 0 3.056.927 5.508 5.508 0 0 0 5.5-5.5zM6.439 8.561a1.51 1.51 0 0 0 1.062.44 1.512 1.512 0 0 0 1.063-.44 1.503 1.503 0 0 0 0-2.125l-1.5-1.5a1.502 1.502 0 0 0-2.126 2.126l1.5 1.5zm0 14.875-1.5 1.5a1.503 1.503 0 0 0 2.125 2.126l1.5-1.5a1.502 1.502 0 0 0-2.126-2.126zM24.5 9a1.507 1.507 0 0 0 1.061-.439l1.5-1.5a1.51 1.51 0 0 0 .44-1.062 1.512 1.512 0 0 0-.44-1.062 1.503 1.503 0 0 0-2.126 0l-1.5 1.5A1.5 1.5 0 0 0 24.499 9zm1.061 14.439a1.502 1.502 0 0 0-2.126 2.126l1.5 1.5a1.502 1.502 0 0 0 2.126-2.126l-1.5-1.5zM6 16a1.503 1.503 0 0 0-1.5-1.5h-2A1.503 1.503 0 0 0 1 16a1.503 1.503 0 0 0 1.5 1.5h2A1.503 1.503 0 0 0 6 16zm10 10a1.503 1.503 0 0 0-1.5 1.5v2A1.503 1.503 0 0 0 16 31a1.503 1.503 0 0 0 1.5-1.5v-2A1.503 1.503 0 0 0 16 26zm13.5-11.5h-2A1.503 1.503 0 0 0 26 16a1.503 1.503 0 0 0 1.5 1.5h2A1.503 1.503 0 0 0 31 16a1.503 1.503 0 0 0-1.5-1.5z"/></symbol>
    <symbol id="youtube-icon" viewBox="0 0 32 32"><path d="M15.736 3.84c.82.005 2.872.025 5.054.116l.774.035c2.195.106 4.389.29 5.478.603 1.452.422 2.591 1.65 2.977 3.207.614 2.474.691 7.3.7 8.469l.002.241v.276c-.011 1.169-.088 5.996-.702 8.469-.39 1.563-1.532 2.792-2.977 3.207-1.089.312-3.283.497-5.478.603l-.774.036c-2.181.089-4.233.111-5.054.114l-.361.002h-.392c-1.736-.011-8.995-.092-11.306-.755-1.45-.422-2.591-1.65-2.977-3.207-.614-2.474-.691-7.3-.7-8.469v-.517c.009-1.169.086-5.996.7-8.469.39-1.562 1.531-2.792 2.978-3.206 2.309-.665 9.57-.745 11.306-.755h.751zm-3.449 7.138v11.103l9.216-5.552-9.216-5.552z"/></symbol>
    <symbol id="badge-icon" viewBox="0 0 148 32"><path d="M0 6.095c0-2.873 0-4.31 0.893-5.203s2.329-0.893 5.203-0.893h129.444c7.011 0 10.517 0 11.253 1.991 0.006 0.015 0.011 0.029 0.016 0.044 0.705 2.002-1.993 4.241-7.39 8.717-2.488 2.063-3.731 3.095-3.773 4.47-0 0.011-0.001 0.022-0.001 0.033-0.027 1.376 1.165 2.468 3.547 4.652l1.641 1.504c4.874 4.468 7.311 6.703 6.555 8.645s-4.062 1.943-10.674 1.943h-130.618c-2.873 0-4.31 0-5.203-0.893s-0.893-2.329-0.893-5.203v-19.81z"></path></symbol>
    <symbol id="arrow-btn" viewBox="0 0 32 32"><path d="M8.221 5.16l2.36-2.36 13.2 13.2-13.2 13.2-2.36-2.36 10.84-10.84-10.84-10.84z"></path></symbol>
    <symbol id="arrow-input-btn" viewBox="0 0 26 32"><path stroke-linejoin="miter" stroke-linecap="butt" stroke-miterlimit="4" stroke-width="3.2" d="M0.975 30.094l19.2-14.811-19.2-13.989"></path>
    <symbol id="message-icon" viewBox="0 0 32 32"><path d="M9.567 20.058h9.991v-2.581h-9.991v2.581zM9.567 16.186h14.987v-2.581h-14.987v2.581zM9.567 12.315h14.987v-2.581h-14.987v2.581zM4.571 30.383v-23.23c0-0.71 0.245-1.317 0.734-1.822s1.077-0.758 1.763-0.759h19.983c0.687 0 1.275 0.253 1.765 0.759s0.734 1.113 0.733 1.822v15.487c0 0.71-0.244 1.318-0.733 1.824s-1.077 0.758-1.765 0.758h-17.485l-4.996 5.162zM8.506 22.639h18.547v-15.487h-19.983v16.939l1.436-1.452z"></path></symbol>
    <symbol id="arrow-link" viewBox="0 0 32 32"><path d="M17.2 4.421l-1.973 2.189 7.809 7.471-21.259-0.221v2.889l21.259 0.221-7.823 8.665 1.987 1.897 11.196-12.421-11.196-10.69z"></path>
    <symbol id="close-button" viewBox="0 0 32 32"><path d="M16 17.867l-6.533 6.533c-0.244 0.245-0.556 0.367-0.933 0.367s-0.689-0.122-0.933-0.367c-0.244-0.244-0.367-0.555-0.367-0.933s0.122-0.689 0.367-0.933l6.533-6.533-6.533-6.533c-0.244-0.244-0.367-0.556-0.367-0.933s0.122-0.689 0.367-0.933c0.244-0.244 0.556-0.367 0.933-0.367s0.689 0.122 0.933 0.367l6.533 6.533 6.533-6.533c0.244-0.244 0.556-0.367 0.933-0.367s0.689 0.122 0.933 0.367c0.245 0.244 0.367 0.556 0.367 0.933s-0.122 0.689-0.367 0.933l-6.533 6.533 6.533 6.533c0.245 0.244 0.367 0.556 0.367 0.933s-0.122 0.689-0.367 0.933c-0.244 0.245-0.555 0.367-0.933 0.367s-0.689-0.122-0.933-0.367l-6.533-6.533z"></path>
    <symbol id="burger-menu" viewBox="0 0 41 32"> <path d="M1.403 0h38.338c0.775 0 1.403 0.628 1.403 1.403v0.623c0 0.775-0.628 1.403-1.403 1.403h-38.338c-0.775 0-1.403-0.628-1.403-1.403v-0.623c0-0.775 0.628-1.403 1.403-1.403z"></path> <path d="M0 15.117c0-0.775 0.628-1.403 1.403-1.403h25.766c0.775 0 1.403 0.628 1.403 1.403v0.623c0 0.775-0.628 1.403-1.403 1.403h-25.766c-0.775 0-1.403-0.628-1.403-1.403v-0.623z"></path> <path d="M1.403 28.571h20.052c0.775 0 1.403 0.628 1.403 1.403v0.623c0 0.775-0.628 1.403-1.403 1.403h-20.052c-0.775 0-1.403-0.628-1.403-1.403v-0.623c0-0.775 0.628-1.403 1.403-1.403z"></path>
    <symbol id="login-icon" viewBox="0 0 32 32"> <path d="M17.333 28c-0.378 0-0.694-0.128-0.949-0.384s-0.383-0.572-0.384-0.949c-0.001-0.377 0.127-0.693 0.384-0.949s0.573-0.384 0.949-0.384h8v-18.667h-8c-0.378 0-0.694-0.128-0.949-0.384s-0.383-0.572-0.384-0.949c-0.001-0.377 0.127-0.693 0.384-0.949s0.573-0.384 0.949-0.384h8c0.733 0 1.361 0.261 1.884 0.784s0.784 1.15 0.783 1.883v18.667c0 0.733-0.261 1.361-0.783 1.884s-1.15 0.784-1.884 0.783h-8zM14.9 17.333h-9.567c-0.378 0-0.694-0.128-0.949-0.384s-0.383-0.572-0.384-0.949c-0.001-0.377 0.127-0.693 0.384-0.949s0.573-0.384 0.949-0.384h9.567l-2.5-2.5c-0.244-0.245-0.367-0.544-0.367-0.9s0.122-0.667 0.367-0.933c0.244-0.267 0.556-0.406 0.933-0.417s0.7 0.116 0.967 0.384l4.767 4.767c0.267 0.267 0.4 0.578 0.4 0.933s-0.133 0.667-0.4 0.933l-4.767 4.767c-0.267 0.267-0.583 0.395-0.949 0.384s-0.683-0.15-0.951-0.417c-0.244-0.267-0.361-0.583-0.349-0.949s0.139-0.672 0.383-0.917l2.467-2.467z"></path> </symbol></symbol>
</symbol>
</symbol>
</symbol>
</defs>
</svg>

