<svg width="60" height="62" viewBox="0 0 60 62" fill="none" xmlns="http://www.w3.org/2000/svg">
<g clip-path="url(#clip0_658_907)">
<path d="M20.3605 25.215L28.2005 29.74V20.6838L20.3543 16.1588V25.215H20.3605ZM16.9818 27.1613L28.2005 33.6325V39.9988L11.4668 30.3438V11.0275L16.9818 14.2113V27.1613ZM29.0005 10.2413L21.1618 14.7713L29.0005 19.2963L36.8393 14.7713L29.0005 10.2463V10.2413ZM29.0005 6.35375L38.4343 11.8175L43.9493 8.63375L29.0005 0L12.2893 9.64875L17.803 12.825L29.0005 6.35375ZM41.0118 27.1613V20.58L37.6405 22.5263V25.215L29.8005 29.7463V20.69L46.5343 11.035V30.345L29.8005 40.0063V33.6463L41.0118 27.1613Z" fill="#FFF9EB"/>
</g>
<path d="M11.25 57.355V58H0V57.355H3.255C2.455 56.885 1.825 56.25 1.365 55.45C0.915 54.64 0.69 53.725 0.69 52.705C0.69 51.165 1.22 49.875 2.28 48.835C3.35 47.795 4.635 47.275 6.135 47.275C7.645 47.275 8.955 47.77 10.065 48.76L8.85 50.515C8.38 50.105 7.945 49.825 7.545 49.675C7.155 49.515 6.73 49.435 6.27 49.435C5.38 49.435 4.63 49.74 4.02 50.35C3.41 50.95 3.105 51.745 3.105 52.735C3.105 53.725 3.395 54.52 3.975 55.12C4.565 55.71 5.265 56.005 6.075 56.005C6.885 56.005 7.56 55.85 8.1 55.54V52.66H10.455V56.38C10.115 56.76 9.71 57.085 9.24 57.355H11.25ZM24.405 57.355V58H20.46L19.485 55.735H15.09L14.115 58H10.17V57.355H11.895L16.155 47.515H18.42L22.665 57.355H24.405ZM17.295 50.635L15.975 53.68H18.6L17.295 50.635ZM34.0068 51.4L31.1718 57.13H29.7768L26.9568 51.4V58H23.1618V57.355H24.6168V47.515H27.7818L30.4818 53.275L33.1968 47.515H36.3468V57.355H37.8018V58H34.0068V51.4ZM39.3783 57.355V47.515H46.9383V49.6H41.7183V51.76H46.4133V53.755H41.7183V55.93H47.1033V57.355H48.5583V58H37.9233V57.355H39.3783ZM59.6627 57.355V58H55.7777L53.5427 54.55L51.3227 58H47.4827V57.355H48.9227L52.0277 52.63L48.7427 47.515H51.5477L53.5427 50.62L55.5377 47.515H58.3577L55.0877 52.57L58.2077 57.355H59.6627Z" fill="#FFF9EB"/>
<defs>
<clipPath id="clip0_658_907">
<rect width="35" height="40" fill="white" transform="translate(11.4668)"/>
</clipPath>
</defs>
</svg>
